<?xml version="1.0" encoding="UTF-8" standalone="no"?>
<!-- Created with Inkscape (http://www.inkscape.org/) -->

<svg
   xmlns:dc="http://purl.org/dc/elements/1.1/"
   xmlns:cc="http://creativecommons.org/ns#"
   xmlns:rdf="http://www.w3.org/1999/02/22-rdf-syntax-ns#"
   xmlns:svg="http://www.w3.org/2000/svg"
   xmlns="http://www.w3.org/2000/svg"
   xmlns:xlink="http://www.w3.org/1999/xlink"
   xmlns:sodipodi="http://sodipodi.sourceforge.net/DTD/sodipodi-0.dtd"
   xmlns:inkscape="http://www.inkscape.org/namespaces/inkscape"
   width="744.09448819"
   height="1052.3622047"
   id="svg2884"
   version="1.1"
   inkscape:version="0.47 r22583"
   sodipodi:docname="cyclops.svg">
  <defs
     id="defs2886">
    <linearGradient
       inkscape:collect="always"
       id="linearGradient2909">
      <stop
         style="stop-color:#000000;stop-opacity:1;"
         offset="0"
         id="stop2911" />
      <stop
         style="stop-color:#000000;stop-opacity:0;"
         offset="1"
         id="stop2913" />
    </linearGradient>
    <inkscape:perspective
       sodipodi:type="inkscape:persp3d"
       inkscape:vp_x="0 : 526.18109 : 1"
       inkscape:vp_y="0 : 1000 : 0"
       inkscape:vp_z="744.09448 : 526.18109 : 1"
       inkscape:persp3d-origin="372.04724 : 350.78739 : 1"
       id="perspective2892" />
    <linearGradient
       inkscape:collect="always"
       xlink:href="#linearGradient2909"
       id="linearGradient2915"
       x1="374.28571"
       y1="786.64789"
       x2="374.28571"
       y2="939.7644"
       gradientUnits="userSpaceOnUse" />
  </defs>
  <sodipodi:namedview
     id="base"
     pagecolor="#ffffff"
     bordercolor="#666666"
     borderopacity="1.0"
     inkscape:pageopacity="0.0"
     inkscape:pageshadow="2"
     inkscape:zoom="0.35"
     inkscape:cx="263.88198"
     inkscape:cy="772.3082"
     inkscape:document-units="px"
     inkscape:current-layer="layer1"
     showgrid="false"
     inkscape:window-width="887"
     inkscape:window-height="998"
     inkscape:window-x="0"
     inkscape:window-y="28"
     inkscape:window-maximized="0" />
  <metadata
     id="metadata2889">
    <rdf:RDF>
      <cc:Work
         rdf:about="">
        <dc:format>image/svg+xml</dc:format>
        <dc:type
           rdf:resource="http://purl.org/dc/dcmitype/StillImage" />
        <dc:title></dc:title>
      </cc:Work>
    </rdf:RDF>
  </metadata>
  <g
     inkscape:label="Layer 1"
     inkscape:groupmode="layer"
     id="layer1">
    <path
       style="fill:#ffb380;fill-opacity:1;fill-rule:evenodd;stroke:none"
       d="m 144.07761,152.14295 478.23364,0 c 0,0 128.66039,682.6241 -13,824.28449 -106.59249,106.59246 -345.64115,106.59246 -452.23364,0 -141.660384,-141.66039 -13,-824.28449 -13,-824.28449 z"
       id="rect2894"
       sodipodi:nodetypes="ccaac"
       inkscape:export-filename="/home/njones/code/ld25/cyclops.png"
       inkscape:export-xdpi="8.5511093"
       inkscape:export-ydpi="8.5511093" />
    <path
       style="fill:#ffb380;fill-opacity:1;fill-rule:evenodd;stroke:none"
       d="m -13.035719,303.15179 c -20.03693,-18.64451 -45.03264,173.0707 17.1428604,235.91964 12.3148626,12.44825 23.8904806,38.33105 -1.04018,75.71429 -13.7387404,20.60108 -25.4072804,34.63974 -17.1428504,84.27232 5.5800804,33.5116 79.535542,-2.46212 117.571429,-10 27.08777,-5.36821 -19.526464,-63.31729 0,-82.84375 1.42894,-1.42894 4.63355,1.42894 6.0625,0 49.0408,-49.0408 68.64446,-217.95887 0,-208.0625 -68.57442,9.88627 -74.151515,-49.92414 -122.593759,-95 z"
       id="rect2896"
       sodipodi:nodetypes="cssssaass"
       inkscape:export-filename="/home/njones/code/ld25/cyclops.png"
       inkscape:export-xdpi="8.5511093"
       inkscape:export-ydpi="8.5511093" />
    <path
       sodipodi:nodetypes="cssssaass"
       id="path2901"
       d="m 754.52183,303.15179 c 20.03693,-18.64451 45.03264,173.0707 -17.14286,235.91964 -12.31486,12.44825 -23.89048,38.33105 1.04018,75.71429 13.73874,20.60108 25.40728,34.63974 17.14285,84.27232 -5.58008,33.5116 -79.53554,-2.46212 -117.57143,-10 -27.08777,-5.36821 19.52647,-63.31729 0,-82.84375 -1.42894,-1.42894 -4.63355,1.42894 -6.0625,0 -49.0408,-49.0408 -68.64446,-217.95887 0,-208.0625 68.57442,9.88627 74.15152,-49.92414 122.59376,-95 z"
       style="fill:#ffb380;fill-opacity:1;fill-rule:evenodd;stroke:none"
       inkscape:export-filename="/home/njones/code/ld25/cyclops.png"
       inkscape:export-xdpi="8.5511093"
       inkscape:export-ydpi="8.5511093" />
    <path
       style="fill:#ffb380;fill-opacity:1;fill-rule:evenodd;stroke:none"
       d="m 371.24539,24.920974 c 31.90588,-28.0589997 -8.00779,-28.0589997 23.89809,0 31.90587,28.059 29.52116,229.140486 29.52116,229.140486 l -82.94042,0 c 0,0 -2.3847,-201.081486 29.52117,-229.140486 z"
       id="rect2903"
       sodipodi:nodetypes="czccz"
       inkscape:export-filename="/home/njones/code/ld25/cyclops.png"
       inkscape:export-xdpi="8.5511093"
       inkscape:export-ydpi="8.5511093" />
    <rect
       style="fill:url(#linearGradient2915);fill-opacity:1;fill-rule:evenodd;stroke:none"
       id="rect2907"
       width="365.71426"
       height="137.14287"
       x="200.3373"
       y="766.64789"
       inkscape:export-filename="/home/njones/code/ld25/cyclops.png"
       inkscape:export-xdpi="8.5511093"
       inkscape:export-ydpi="8.5511093" />
    <path
       style="fill:#ffffff;fill-opacity:1;fill-rule:evenodd;stroke:none"
       d="m 237.5,840.5765 c 10,-7.14286 20.71428,4.64286 25.35714,14.64286 14.64286,10.71428 21.42857,49.64285 21.42857,49.64285 l -54.28571,0 c 0,0 1.78571,-52.14285 7.5,-64.28571 z"
       id="rect2917"
       sodipodi:nodetypes="ccccc"
       inkscape:export-filename="/home/njones/code/ld25/cyclops.png"
       inkscape:export-xdpi="8.5511093"
       inkscape:export-ydpi="8.5511093" />
    <path
       sodipodi:nodetypes="ccccc"
       id="path2920"
       d="m 518.21428,840.5765 c -10,-7.14286 -20.71428,4.64286 -25.35714,14.64286 -14.64286,10.71428 -21.42857,49.64285 -21.42857,49.64285 l 54.28571,0 c 0,0 -1.78571,-52.14285 -7.5,-64.28571 z"
       style="fill:#ffffff;fill-opacity:1;fill-rule:evenodd;stroke:none"
       inkscape:export-filename="/home/njones/code/ld25/cyclops.png"
       inkscape:export-xdpi="8.5511093"
       inkscape:export-ydpi="8.5511093" />
    <path
       style="fill:#ffffff;fill-opacity:1;fill-rule:evenodd;stroke:none"
       d="m 439.10714,868.8982 c -5,-3.99601 -10.35714,2.5974 -12.67857,8.1918 -7.32143,5.994 -10.71428,27.77221 -10.71428,27.77221 l 27.14285,0 c 0,0 -0.89285,-29.17081 -3.75,-35.96401 z"
       id="path2922"
       sodipodi:nodetypes="ccccc"
       inkscape:export-filename="/home/njones/code/ld25/cyclops.png"
       inkscape:export-xdpi="8.5511093"
       inkscape:export-ydpi="8.5511093" />
    <path
       sodipodi:nodetypes="ccccc"
       id="path2924"
       d="m 363.92857,867.86204 c -10,-4.11114 -20.71428,2.67223 -25.35714,8.42782 -14.64286,6.16669 -21.42857,28.57235 -21.42857,28.57235 l 54.28571,0 c 0,0 -1.78571,-30.01125 -7.5,-37.00017 z"
       style="fill:#ffffff;fill-opacity:1;fill-rule:evenodd;stroke:none"
       inkscape:export-filename="/home/njones/code/ld25/cyclops.png"
       inkscape:export-xdpi="8.5511093"
       inkscape:export-ydpi="8.5511093" />
    <path
       sodipodi:nodetypes="ccccc"
       id="path2926"
       d="m 240.3983,820.7053 c 8.38819,5.99158 17.37554,-3.89452 21.27006,-12.28271 12.28272,-8.98735 17.97471,-41.6414 17.97471,-41.6414 l -45.53592,0 c 0,0 1.49789,43.73845 6.29115,53.92411 z"
       style="fill:#ffffff;fill-opacity:1;fill-rule:evenodd;stroke:none"
       inkscape:export-filename="/home/njones/code/ld25/cyclops.png"
       inkscape:export-xdpi="8.5511093"
       inkscape:export-ydpi="8.5511093" />
    <path
       style="fill:#ffffff;fill-opacity:1;fill-rule:evenodd;stroke:none"
       d="m 504.69121,820.52673 c -8.38819,5.99158 -17.37554,-3.89452 -21.27006,-12.28271 -12.28272,-8.98735 -17.97471,-41.6414 -17.97471,-41.6414 l 45.53592,0 c 0,0 -1.49789,43.73845 -6.29115,53.92411 z"
       id="path2928"
       sodipodi:nodetypes="ccccc"
       inkscape:export-filename="/home/njones/code/ld25/cyclops.png"
       inkscape:export-xdpi="8.5511093"
       inkscape:export-ydpi="8.5511093" />
    <path
       style="fill:#d38d5f;fill-opacity:1;fill-rule:evenodd;stroke:none"
       d="m 528.57143,566.64789 c 0,48.91665 -75.33469,73.02813 -144.28572,45.71428 -61.30682,-24.28572 -124.28573,3.20237 -124.28573,-45.71428 0,-48.91665 60.12177,-88.57143 134.28573,-88.57143 74.16395,0 134.28572,39.65478 134.28572,88.57143 z"
       id="path2930"
       sodipodi:nodetypes="csssc"
       inkscape:export-filename="/home/njones/code/ld25/cyclops.png"
       inkscape:export-xdpi="8.5511093"
       inkscape:export-ydpi="8.5511093" />
    <path
       sodipodi:type="arc"
       style="fill:#ffe6d5;fill-opacity:1;fill-rule:evenodd;stroke:none"
       id="path2933"
       sodipodi:cx="417.14285"
       sodipodi:cy="333.79074"
       sodipodi:rx="144.28572"
       sodipodi:ry="75.714287"
       d="m 561.42857,333.79074 a 144.28572,75.714287 0 1 1 -288.57144,0 144.28572,75.714287 0 1 1 288.57144,0 z"
       transform="translate(-37.142857,-14.285714)"
       inkscape:export-filename="/home/njones/code/ld25/cyclops.png"
       inkscape:export-xdpi="8.5511093"
       inkscape:export-ydpi="8.5511093" />
    <path
       sodipodi:type="arc"
       style="fill:#552200;fill-opacity:1;fill-rule:evenodd;stroke:none"
       id="path2935"
       sodipodi:cx="354.64285"
       sodipodi:cy="303.79074"
       sodipodi:rx="45.357143"
       sodipodi:ry="96.428574"
       d="m 400,303.79074 a 45.357143,96.428574 0 1 1 -90.71429,0 45.357143,96.428574 0 1 1 90.71429,0 z"
       transform="matrix(1.5905512,0,0,0.71481482,-183.36333,101.99376)"
       inkscape:export-filename="/home/njones/code/ld25/cyclops.png"
       inkscape:export-xdpi="8.5511093"
       inkscape:export-ydpi="8.5511093" />
    <path
       sodipodi:type="arc"
       style="fill:#000000;fill-opacity:1;fill-rule:evenodd;stroke:none"
       id="path2937"
       sodipodi:cx="380.71429"
       sodipodi:cy="317.36218"
       sodipodi:rx="21.428572"
       sodipodi:ry="21.428572"
       d="m 402.14287,317.36218 a 21.428572,21.428572 0 1 1 -42.85715,0 21.428572,21.428572 0 1 1 42.85715,0 z"
       inkscape:export-xdpi="8.5511093"
       inkscape:export-ydpi="8.5511093"
       inkscape:export-filename="/home/njones/code/ld25/cyclops.png" />
  </g>
</svg>
